<?xml version="1.0"?>
<svg xmlns="http://www.w3.org/2000/svg" xmlns:xlink="http://www.w3.org/1999/xlink" xmlns:svgjs="http://svgjs.com/svgjs" version="1.1" width="512" height="512" x="0" y="0" viewBox="0 0 512 512" style="enable-background:new 0 0 512 512" xml:space="preserve" class=""><g><g xmlns="http://www.w3.org/2000/svg"><path d="m343.5 172.281c0-4.142-3.358-7.5-7.5-7.5h-255c-4.142 0-7.5 3.358-7.5 7.5s3.358 7.5 7.5 7.5h255c4.142 0 7.5-3.358 7.5-7.5z" fill="#ffffff" data-original="#000000" style="" class=""/><path d="m266.365 231.448h-185.365c-4.142 0-7.5 3.358-7.5 7.5s3.358 7.5 7.5 7.5h185.365c4.142 0 7.5-3.358 7.5-7.5s-3.358-7.5-7.5-7.5z" fill="#ffffff" data-original="#000000" style="" class=""/><path d="m81 313.115h185.365c4.142 0 7.5-3.358 7.5-7.5s-3.358-7.5-7.5-7.5h-185.365c-4.142 0-7.5 3.358-7.5 7.5s3.358 7.5 7.5 7.5z" fill="#ffffff" data-original="#000000" style="" class=""/><path d="m81 379.781h255c4.142 0 7.5-3.358 7.5-7.5s-3.358-7.5-7.5-7.5h-255c-4.142 0-7.5 3.358-7.5 7.5s3.358 7.5 7.5 7.5z" fill="#ffffff" data-original="#000000" style="" class=""/><path d="m408.5 175.067v-142.567c0-17.92-14.58-32.5-32.5-32.5h-169.505c-4.142 0-7.5 3.358-7.5 7.5s3.358 7.5 7.5 7.5h169.505c9.649 0 17.5 7.851 17.5 17.5v142.567c-50.24 3.838-90 45.937-90 97.214 0 51.705 40.176 93.408 90 97.214v110.005c0 9.649-7.851 17.5-17.5 17.5h-330c-9.649 0-17.5-7.851-17.5-17.5v-361h71c17.92 0 32.5-14.58 32.5-32.5v-71h39.495c4.142 0 7.5-3.358 7.5-7.5s-3.358-7.5-7.5-7.5h-46.995c-1.886 0-3.853.745-5.303 2.197l-103.5 103.5c-1.425 1.424-2.197 3.418-2.197 5.303v368.5c0 17.92 14.58 32.5 32.5 32.5h330c17.92 0 32.5-14.58 32.5-32.5v-110.017c15.104-1.16 29.742-5.801 42.723-13.616 3.548-2.136 4.693-6.745 2.557-10.294-2.136-3.547-6.744-4.694-10.294-2.557-12.784 7.697-27.475 11.765-42.485 11.765-45.491 0-82.5-37.009-82.5-82.5s37.009-82.5 82.5-82.5 82.5 37.009 82.5 82.5c0 17.946-5.661 35.005-16.37 49.335-2.479 3.318-1.8 8.018 1.518 10.498 3.319 2.479 8.019 1.799 10.498-1.518 12.662-16.942 19.354-37.107 19.354-58.314-.001-51.239-39.73-93.373-90.001-97.215zm-291.5-149.461v60.394c0 9.649-7.851 17.5-17.5 17.5h-60.394z" fill="#ffffff" data-original="#000000" style="" class=""/><path d="m449.748 264.781h-41.248v-41.248c0-4.142-3.358-7.5-7.5-7.5s-7.5 3.358-7.5 7.5v41.248h-41.248c-4.142 0-7.5 3.358-7.5 7.5s3.358 7.5 7.5 7.5h41.248v41.248c0 4.142 3.358 7.5 7.5 7.5s7.5-3.358 7.5-7.5v-41.248h41.248c4.142 0 7.5-3.358 7.5-7.5s-3.358-7.5-7.5-7.5z" fill="#ffffff" data-original="#000000" style="" class=""/></g></g></svg>
